<svg width="418" height="449" viewBox="0 0 418 449" fill="none" xmlns="http://www.w3.org/2000/svg">
<path d="M285.64 32.58C266.18 11.57 239 0 209 0C178.84 0 151.57 11.5 132.2 32.38C112.62 53.49 103.08 82.18 105.32 113.16C109.76 174.28 156.27 224 209 224C261.73 224 308.16 174.29 312.67 113.18C314.94 82.48 305.34 53.85 285.64 32.58ZM385 448H32.9999C28.3925 448.06 23.8297 447.092 19.6435 445.167C15.4573 443.241 11.7529 440.407 8.79986 436.87C2.29986 429.1 -0.32014 418.49 1.61986 407.76C10.0599 360.94 36.3999 321.61 77.7999 294C114.58 269.49 161.17 256 209 256C256.83 256 303.42 269.5 340.2 294C381.6 321.6 407.94 360.93 416.38 407.75C418.32 418.48 415.7 429.09 409.2 436.86C406.248 440.399 402.544 443.235 398.358 445.162C394.171 447.089 389.608 448.059 385 448Z" fill="white"/>
</svg>
